<?xml version="1.0" encoding="utf-8"?>
<!-- Generator: Adobe Illustrator 13.0.0, SVG Export Plug-In . SVG Version: 6.00 Build 14948)  -->
<!DOCTYPE svg PUBLIC "-//W3C//DTD SVG 1.1//EN" "http://www.w3.org/Graphics/SVG/1.1/DTD/svg11.dtd">
<svg version="1.1" id="Layer_1" xmlns="http://www.w3.org/2000/svg" xmlns:xlink="http://www.w3.org/1999/xlink" x="0px" y="0px"
	 width="767.003px" height="192.006px" viewBox="0 0 767.003 192.006" enable-background="new 0 0 767.003 192.006"
	 xml:space="preserve">
<g>
	<g>
		<path d="M286.553,187.243h38.12v-4.68h-15.39l-44.62-124.33h-6.36l-8.35,23.789l-36.95,105.221h5.85l13.13-38.1h41.11l13.13,38.1
			H286.553z M233.653,144.303l17.69-51.31h2.39l17.69,51.31H233.653z"/>
		<path d="M728.894,187.243h38.109v-4.68h-15.391l-44.619-124.33h-6.36l-8.351,23.789l-36.949,105.221h5.85l13.131-38.1h41.109
			l13.13,38.1H728.894z M675.984,144.303l17.689-51.31h2.391l17.689,51.31H675.984z"/>
		<polygon points="419.454,187.243 462.423,187.243 462.423,182.563 443.863,182.563 443.863,60.913 414.613,60.913 
			388.644,145.133 386.583,145.133 361.113,60.913 312.633,60.913 312.633,65.753 331.023,65.753 331.023,187.243 336.374,187.243 
			336.374,67.763 338.293,67.763 374.654,187.243 381.173,187.243 418.064,67.593 419.454,67.593 		"/>
		<polygon points="511.234,65.753 529.793,65.753 529.793,60.913 486.824,60.913 486.824,182.563 468.443,182.563 468.443,187.243 
			529.793,187.243 529.793,182.563 511.234,182.563 		"/>
		<path d="M540.193,123.243c0,39.16,25.541,66.26,59.65,66.26c22.37,0,39.78-9.689,46.6-28.9c2.121-5.949,2.91-12.82,2.91-20.59
			h-45.84v4.6l18.57-0.01c0,0-0.03,6.211-0.03,9c0,21.78-5.319,30.98-22.93,30.98h-1.56c-22.041,0-29.261-18.54-29.261-35.561
			c0,0-0.659,0.98-0.659-25.66c0-26.629,0.659-27.08,0.659-27.08c0.88-22.449,10.91-34.219,29.261-34.219h2.729
			c20.55,0,31.64,14.779,36.18,33.539h4.97v-20.01c-5.6-4.189-11.41-9.84-17.68-13.24c-7.109-3.859-14.74-5.199-22.42-5.199
			C560.213,57.153,540.193,89.883,540.193,123.243z"/>
		<polygon fill="#FF0000" points="482.484,11.623 514.443,2.503 523.603,34.323 491.644,43.442 		"/>
	</g>
	<radialGradient id="SVGID_1_" cx="64.4951" cy="63.4961" r="141.2353" gradientUnits="userSpaceOnUse">
		<stop  offset="0.3315" style="stop-color:#FFFFFF"/>
		<stop  offset="0.6" style="stop-color:#DDDDDD"/>
		<stop  offset="1" style="stop-color:#7E8283"/>
	</radialGradient>
	<circle fill="url(#SVGID_1_)" cx="96.003" cy="96.003" r="95.978"/>
	<radialGradient id="SVGID_2_" cx="62.5083" cy="62.5049" r="143.3616" gradientUnits="userSpaceOnUse">
		<stop  offset="0" style="stop-color:#FFFFFF"/>
		<stop  offset="0.12" style="stop-color:#FFE3D2"/>
		<stop  offset="0.55" style="stop-color:#FF0000"/>
		<stop  offset="1" style="stop-color:#4E1E1C"/>
	</radialGradient>
	<path fill="url(#SVGID_2_)" d="M169.043,40.644c-9.66-16.801-24.57-29.801-43.38-35.92c-18.82-6.111-38.521-4.351-56.21,3.559
		l14.17,4.601c13.8-9.17,28.58-12.53,42.04-8.159c13.46,4.379,23.44,15.779,29.21,31.309L169.043,40.644z M133.803,29.192
		c0.021-13.66-2.64-22.68-8.14-24.469c-5.5-1.781-12.96,3.949-20.97,15.01L133.803,29.192z M119.443,103.612
		c4.59-14.129,8.12-27.789,10.52-40.209l-42.27-13.74c-5.36,11.47-10.53,24.59-15.13,38.73L119.443,103.612z M62.043,128.603
		c-2.53,13.051-3.83,24.75-3.84,34.211l29.11,9.459c5.55-7.66,11.38-17.89,17-29.93L62.043,128.603z M16.063,149.123
		c11.56,17.42,28.86,31.2,50.28,38.159c21.42,6.961,43.521,5.98,63.11-1.319l-6.9-2.239c-17.689,7.909-37.39,9.67-56.21,3.559
		c-18.81-6.119-33.72-19.119-43.38-35.92L16.063,149.123z M37.133,155.974c5.77,15.529,15.75,26.93,29.21,31.309
		c13.46,4.371,28.24,1.011,42.04-8.159l-21.07-6.851c-8.01,11.061-15.47,16.791-20.97,15.01c-5.5-1.789-8.16-10.809-8.14-24.469
		L37.133,155.974z M10.864,111.983c1.22,14.26,5.399,27.729,12.1,39.379l14.17,4.611c-4-10.771-5.98-23.531-5.69-37.311
		L10.864,111.983z M122.553,183.724c12.271-5.48,23.57-13.931,32.94-24.75l-20.58-6.691c-7.87,11.32-16.96,20.471-26.53,26.841
		L122.553,183.724z M4.723,66.343c-4.59,14.141-5.729,28.57-3.87,42.381l10.01,3.26c-1.16-13.59,0.37-27.891,4.96-42.03
		L4.723,66.343z M165.503,162.224c9.62-10.08,17.18-22.421,21.78-36.561l-11.1-3.61c-4.6,14.14-11.77,26.61-20.689,36.921
		L165.503,162.224z M38.643,77.362c-4.59,14.141-6.92,28.19-7.2,41.301l30.6,9.939c2.4-12.42,5.93-26.08,10.52-40.209L38.643,77.362
		z M134.914,152.282c7.479-10.77,13.85-23.51,18.45-37.639l-33.92-11.031c-4.6,14.141-9.77,27.261-15.13,38.73L134.914,152.282z
		 M176.183,122.053c4.59-14.14,6.12-28.44,4.96-42.03l-20.58-6.68c-0.28,13.11-2.61,27.16-7.2,41.301L176.183,122.053z
		 M36.513,33.032c-8.92,10.311-16.09,22.781-20.689,36.921l22.819,7.409c4.601-14.129,10.971-26.869,18.45-37.639L36.513,33.032z
		 M160.563,73.343c0.29-13.779-1.69-26.54-5.69-37.311l-21.07-6.84c-0.01,9.471-1.31,21.16-3.84,34.211L160.563,73.343z
		 M83.624,12.883c-9.57,6.36-18.66,15.521-26.53,26.841l30.6,9.939c5.62-12.04,11.44-22.27,17-29.93L83.624,12.883z M191.153,83.282
		c-1.95-14.51-7.2-28.329-15.21-40.399l-6.9-2.239c6.7,11.649,10.88,25.119,12.1,39.379L191.153,83.282z M62.553,6.043
		c-13.58,5.06-25.95,13.149-36.05,23.739l10.01,3.25c9.37-10.819,20.67-19.27,32.94-24.75L62.553,6.043z"/>
</g>
</svg>
