<?xml version="1.0" encoding="UTF-8" standalone="no"?>
<!-- Created with Inkscape (http://www.inkscape.org/) -->

<svg
   xmlns:dc="http://purl.org/dc/elements/1.1/"
   xmlns:cc="http://creativecommons.org/ns#"
   xmlns:rdf="http://www.w3.org/1999/02/22-rdf-syntax-ns#"
   xmlns:svg="http://www.w3.org/2000/svg"
   xmlns="http://www.w3.org/2000/svg"
   xmlns:sodipodi="http://sodipodi.sourceforge.net/DTD/sodipodi-0.dtd"
   xmlns:inkscape="http://www.inkscape.org/namespaces/inkscape"
   width="77.650528mm"
   height="38.324924mm"
   viewBox="0 0 275.13966 135.79698"
   id="svg2"
   version="1.1"
   inkscape:version="0.91 r13725"
   sodipodi:docname="the-colony.svg">
  <defs
     id="defs4" />
  <sodipodi:namedview
     id="base"
     pagecolor="#7e7e7e"
     bordercolor="#666666"
     borderopacity="1.0"
     inkscape:pageopacity="0"
     inkscape:pageshadow="2"
     inkscape:zoom="2.8084293"
     inkscape:cx="131.65943"
     inkscape:cy="41.411168"
     inkscape:document-units="px"
     inkscape:current-layer="g4159"
     showgrid="false"
     inkscape:snap-nodes="false"
     inkscape:snap-global="false"
     inkscape:window-width="1393"
     inkscape:window-height="735"
     inkscape:window-x="1321"
     inkscape:window-y="27"
     inkscape:window-maximized="0"
     borderlayer="true"
     fit-margin-top="0"
     fit-margin-left="0"
     fit-margin-right="0"
     fit-margin-bottom="0"
     inkscape:snap-others="false" />
  <metadata
     id="metadata7">
    <rdf:RDF>
      <cc:Work
         rdf:about="">
        <dc:format>image/svg+xml</dc:format>
        <dc:type
           rdf:resource="http://purl.org/dc/dcmitype/StillImage" />
        <dc:title></dc:title>
      </cc:Work>
    </rdf:RDF>
  </metadata>
  <g
     inkscape:groupmode="layer"
     id="layer2"
     inkscape:label="Traced"
     style="display:inline"
     transform="translate(-152.01424,-87.122837)">
    <g
       id="g4159">
      <path
         style="color:#000000;font-style:normal;font-variant:normal;font-weight:normal;font-stretch:normal;font-size:medium;line-height:normal;font-family:sans-serif;text-indent:0;text-align:start;text-decoration:none;text-decoration-line:none;text-decoration-style:solid;text-decoration-color:#000000;letter-spacing:normal;word-spacing:normal;text-transform:none;direction:ltr;block-progression:tb;writing-mode:lr-tb;baseline-shift:baseline;text-anchor:start;white-space:normal;clip-rule:nonzero;display:inline;overflow:visible;visibility:visible;opacity:1;isolation:auto;mix-blend-mode:normal;color-interpolation:sRGB;color-interpolation-filters:linearRGB;solid-color:#000000;solid-opacity:1;fill:#ffffff;fill-opacity:1;fill-rule:nonzero;stroke:#000000;stroke-width:0.692;stroke-linecap:butt;stroke-linejoin:miter;stroke-miterlimit:4;stroke-dasharray:none;stroke-dashoffset:0;stroke-opacity:1;color-rendering:auto;image-rendering:auto;shape-rendering:auto;text-rendering:auto;enable-background:accumulate"
         d="m 186.24219,87.357422 -2.06055,0.257812 c -5.65536,0.707834 -9.79726,1.982216 -14.93555,2.169922 l -0.0137,0 -0.0137,0 c -4.3123,0.221176 -8.6254,0.440339 -12.93945,0.660156 l -1.77149,0.08984 0.0977,8.861328 3.48633,0.82813 c 0.78534,-1.51816 1.51812,-2.199737 2.56054,-2.642583 0.71946,-0.305642 1.77926,-0.426949 3.02344,-0.46289 l -0.0937,18.855473 c -0.4319,0.0177 -1.08857,2.9e-4 -1.86719,0.51758 -0.85041,0.56498 -1.34587,1.65323 -1.44922,2.73828 l -0.19335,2.02148 14.1875,0 3.23828,0 9.10547,0 2.86914,0 13.39453,0 -0.0879,-1.83593 c 1.71511,1.05356 3.66595,1.61246 5.60547,1.75 2.82822,0.20056 5.65814,-0.36723 8.02539,-1.38282 l 0.61328,-0.26172 3.69726,-7.24609 0.0723,0 0.0176,-0.17773 0.39453,-0.77344 -0.32617,0.0898 0.0801,-0.81054 c 0,0 0.87735,-8.43841 -5.96484,-11.619149 l -0.0312,-0.01367 -0.0312,-0.01367 c -3.08784,-1.29779 -6.2659,-1.739323 -9.16602,-0.951172 -2.57799,0.700611 -4.80578,2.486311 -6.33789,5.113281 -0.53195,-2.96323 -2.76034,-5.120557 -5.44531,-5.830078 -2.40383,-0.635229 -5.13104,-0.276417 -7.66211,0.984376 l -0.0781,-10.916016 z m -3.66211,4.271484 0.0762,10.564454 3.26172,0.29687 c -0.32506,0.14275 -0.67247,0.20715 -0.97461,0.41602 -1.2903,0.892 -2.23923,2.43354 -2.4668,4.30664 l -0.0137,0.125 0.13281,8.83399 0.0137,-0.25391 c -0.0622,0.50282 -0.0696,1.00264 0.0977,1.54883 0.0109,0.0356 0.0554,0.0562 0.0684,0.0918 l -2.42969,0 c 0.16473,-0.48228 0.24144,-1.00115 0.24805,-1.53711 l 0,-0.006 0.0957,-16.972651 -0.0547,-0.220703 c -0.60607,-2.480881 -1.94678,-4.238462 -3.69336,-4.978516 -1.69522,-0.718287 -3.38493,-0.611399 -5.08594,-0.542969 l -0.082,0 0,0.002 c -0.0241,9.53e-4 -0.0481,-9.3e-4 -0.0723,0 l 0.0723,3.689454 -1.84571,-1.824219 c 0.026,2.348262 -0.0527,20.822264 -0.0527,20.822264 l 0,0.0332 0,0.0332 c 0.0164,0.51727 0.1553,1.02656 0.34375,1.50195 l -3.22461,0 c 0.14141,-0.40433 0.26879,-0.82199 0.27734,-1.23047 l 0,-0.0156 0.11524,-22.736331 c 0.66477,-0.03394 1.32933,-0.06747 1.99414,-0.101563 0.003,-1.05e-4 0.005,-0.0018 0.008,-0.002 4.87754,-0.179209 8.81265,-1.14316 13.19141,-1.84375 z m -22.38281,2.3125 c -0.32184,0.0961 -0.67939,0.110961 -0.98829,0.242188 -0.35915,0.152575 -0.6313,0.452126 -0.96093,0.65625 l -0.01,-0.798828 c 0.65288,-0.03319 1.30607,-0.06646 1.95899,-0.09961 z m 13.41601,3.171875 c 0.64504,0.0349 1.55126,-0.01406 1.88867,0.128907 0.62806,0.266117 1.06579,0.680864 1.49219,2.316406 l -0.0918,16.398436 c -0.30251,0.0446 -0.68275,0.195 -1.13281,0.47852 -0.89314,-0.47782 -1.61762,-0.43454 -2.04687,-0.45703 -0.19908,-0.0104 -0.0921,0.0196 -0.15625,0.008 -0.002,-3e-4 -0.002,2.8e-4 -0.004,0 -9.6e-4,-0.0324 0.003,-0.002 0.002,-0.0469 l 0.002,0.0469 c 1.3e-4,-0.0308 0.0557,-14.08685 0.0469,-18.873049 z m 11.44922,1.835938 c -0.007,0.0033 -0.007,0.01032 -0.0137,0.01367 -0.0755,0.04901 -0.15751,0.07415 -0.23242,0.125 l 0.24609,-0.138672 z m 5.04102,1.853511 c 1.06407,-0.20141 2.08075,-0.16924 2.93554,0.0567 1.7017,0.44968 2.70764,1.39861 2.86719,3.18945 l 0.0293,12.24414 c 9.9e-4,0.41948 0.1128,0.84875 0.23828,1.26562 l -2.44727,0 c 0.14663,-0.39991 0.28336,-0.80269 0.29688,-1.20898 l 0,-0.0195 0.084,-7.75391 -0.0312,0.32422 c 0.34995,-1.83499 -0.0974,-3.58159 -1.0664,-4.80469 -0.96903,-1.2231 -2.3591,-1.92966 -3.79688,-2.14258 -0.65668,-0.0972 -1.33405,-0.0616 -2,0.0567 0.94649,-0.58586 1.93331,-1.02582 2.89063,-1.20704 z m 19.77539,0.57032 c 0.0227,0.003 0.0495,0.0168 0.0723,0.0195 -0.0391,-0.002 -0.0761,-0.016 -0.11523,-0.0176 0.0155,0.002 0.0274,-0.004 0.043,-0.002 z m -1.22657,0.0762 c -2.13023,0.19245 -4.16323,1.07631 -5.43164,2.7832 0.98702,-1.3335 2.11508,-2.2845 3.51172,-2.66406 0.57604,-0.15655 1.26546,-0.10535 1.91992,-0.11914 z m 4.67383,0.86523 c 0.0461,0.0187 0.0866,0.0159 0.13281,0.0352 0.0296,0.0139 0.0373,0.0424 0.0664,0.0566 -0.0644,-0.0347 -0.1338,-0.0589 -0.19922,-0.0918 z m -10.25,2.11719 c -0.44754,0.65468 -0.8036,1.39854 -0.99805,2.26367 l -0.39843,1.77344 -0.2168,-0.002 0.41797,2.20312 c 0.61522,3.24405 3.08715,5.41981 6.05078,6.09375 1.57211,0.35751 3.30393,0.37284 5.13281,0.18555 -1.43067,0.38176 -2.94314,0.63974 -4.41797,0.53516 -2.14196,-0.1519 -4.01959,-0.87207 -5.31836,-2.30665 -1.48513,-1.64043 -2.10538,-3.08032 -2.24609,-4.55664 -0.14071,-1.47631 0.2239,-3.08695 1.10352,-4.95507 0.25226,-0.53575 0.59805,-0.81304 0.89062,-1.23438 z m 6.46485,0.62305 c 0.33104,0.006 0.60467,0.18627 0.92578,0.25195 l -1.91602,-0.0156 c 0.34168,-0.0626 0.6376,-0.24255 0.99024,-0.23633 z m -20.86914,0.55078 c 0.59566,0.0882 1.12858,0.38589 1.44335,0.7832 0.31478,0.39731 0.51194,0.88718 0.33399,1.82031 l -0.0312,0.16211 -0.0801,7.38282 c -0.50533,-0.008 -1.3404,-0.0495 -2.23828,0.56836 -0.0244,0.0168 -0.031,0.0508 -0.0547,0.0683 -0.67253,-0.50502 -1.29463,-0.60469 -1.76367,-0.64648 l -0.12109,-8.14062 c 0.1271,-0.92907 0.46273,-1.36976 0.88281,-1.66016 0.43071,-0.29776 1.03324,-0.4261 1.62891,-0.33789 z m 17.94726,6.58398 11.1582,0.0684 -0.59765,0.16211 c -3.44788,0.93807 -6.46302,1.18942 -8.42969,0.74219 -0.94524,-0.21495 -1.61834,-0.51504 -2.13086,-0.97266 z m 98.62305,16.77149 1.22656,2.63867 c 4.72215,10.16819 10.28833,20.55442 15.19922,30.51758 l 0.0644,4.87304 c -3.6061,-10.58448 -14.26461,-17.5037 -25.2832,-17.30078 -5.94257,-0.55121 -11.73418,1.3766 -16.31836,5.04688 -5.39651,3.25836 -8.53944,8.64409 -9.98828,14.46679 l -0.32617,-37.27734 -18.23633,0.0547 0.25195,43.53711 0,14.20703 c -1.63601,-12.42044 -3.94705,-29.22842 -5.42383,-43.93359 l -0.01,-0.10547 -0.0234,-0.10352 c -1.49321,-6.84128 -6.82044,-11.58077 -12.99023,-13.67578 -6.15883,-2.09129 -13.29013,-1.68184 -18.86133,1.89844 -4.26727,2.45873 -6.8538,6.31903 -8.41211,10.46875 -1.56534,4.16843 -2.17063,8.67032 -2.58008,12.74414 l 0,0.0117 -0.002,0.01 c -1.30834,14.68037 -2.95836,29.47994 -2.82422,44.40821 -0.018,0.83053 0.11789,1.6115 0.21875,2.40429 l -1.29492,-2.7539 -1.35547,0.19922 c -6.65672,0.97786 -12.10922,1.23045 -16.33985,-0.29688 -4.23062,-1.52733 -7.53996,-4.72976 -10.20507,-11.62891 -0.19527,-0.50548 -0.6333,-3.53238 -0.81446,-7.11132 -0.18116,-3.57895 -0.25415,-7.95297 -0.26953,-12.18165 -0.0308,-8.45734 0.16602,-16.33203 0.16602,-16.33203 l 0.002,-0.0566 -0.002,-0.0566 c -0.0233,-0.64667 0.15685,-1.68623 0.51367,-2.32422 0.35682,-0.63798 0.60062,-0.9103 1.47656,-0.91015 l 0.0195,0 24.32031,-0.50391 0,-18.54101 -1.85156,0.006 c -6.34713,0.0205 -12.72292,-0.0547 -19.125,0.0664 l 0.12305,0.002 c -8.8304,-0.42372 -18.06925,3.83061 -22.39844,11.91602 l -0.0801,0.15234 -0.0527,0.16407 c -2.39849,7.592 -1.19811,15.38207 -1.51563,22.43945 l -0.004,0.0684 0.002,0.0684 c 0.3169,10.81955 -0.86431,22.44439 2.94922,33.50195 l 0.0371,0.10742 0.0508,0.10352 c 4.3081,8.79591 15.10005,17.71888 26.44531,20.0957 l 0.0859,0.0176 0.0898,0.01 c 7.39923,0.81609 16.03788,0.12083 23.19532,-2.78321 l 1.80664,-0.73437 -1.35742,-2.88672 c 0.19306,0.21606 0.34966,0.46374 0.55078,0.67187 3.25631,3.3699 7.52253,5.7746 11.79687,7.12305 l 0.002,0.002 0.004,0 c 8.90755,2.77528 18.84517,0.81064 26.35547,-4.45507 3.57937,-2.32932 6.14034,-5.81302 7.58203,-9.72852 l 0,12.48242 33.45508,0 0,-17.56836 c 1.10312,0.50059 2.22086,0.97001 3.37305,1.32227 6.26391,1.94289 13.12994,1.28703 18.96875,-1.57227 6.794,-3.13223 11.8724,-9.14168 14.35742,-16.05078 l 0.42578,31.62891 0,1.84179 1.86523,-0.0195 c 4.50921,-0.0467 15.08985,0.41602 15.08985,0.41602 l 1.86719,0.082 0.49414,-15.91602 8.15039,15.83594 16.68554,0 0,-85.75586 21.48633,30.07227 -0.74414,54.14844 17.44336,-0.84961 -0.13086,-54.92774 22.16016,-32.125 -21.94336,0.13477 -9.60156,14.02344 -9.64844,-13.74219 -21.22266,0.18554 0.3086,0.43165 -17.78516,0 0.17773,42.40234 c -6.52751,-14.08169 -13.85459,-30.858 -20.02734,-43.64844 l -0.5,-1.03711 -21.29492,-0.11523 z m 5.88867,3.72265 13.05859,0.0723 c 7.12401,14.8589 15.98177,35.57968 23.0918,50.33008 l 3.50977,-0.8086 -0.19727,-47.22656 12.2793,0 0,81.01953 -10.74219,0 -13.64844,-26.51953 -0.82226,26.4707 c -1.75739,-0.0757 -7.07898,-0.27027 -11.58008,-0.3164 l -0.73242,-54.47461 -0.1836,-0.375 c -4.56707,-9.28653 -9.58761,-18.8376 -14.0332,-28.17188 z m 108.58594,1.37891 -18.79297,27.24414 0.125,52.55664 -9.9961,0.48633 0.70508,-51.43164 -0.35156,-0.49219 -19.91016,-27.86719 12.18164,-0.10742 11.59571,16.50977 11.51562,-16.81836 12.92774,-0.0801 z m -195.64844,0.35938 c 2.71999,-0.24128 5.5317,0.0986 8.12891,0.98046 5.18358,1.76014 9.37067,5.54813 10.56054,10.93555 1.81306,17.99165 5.11094,40.85108 6.52149,52.30664 l 0.004,0.0273 0.004,0.0273 c 0.91252,5.93259 -2.01722,11.95711 -7.07227,15.23437 l -0.0293,0.0176 -0.0274,0.0215 c -6.60112,4.63973 -15.47565,6.36264 -23.16015,3.9707 -3.73464,-1.17847 -7.51482,-3.33536 -10.25196,-6.16797 -2.73754,-2.83302 -4.438,-6.25687 -4.35156,-10.24805 l 0.002,-0.0293 0,-0.0293 c -0.13603,-14.64488 1.49407,-29.33538 2.8086,-44.08203 l 0,-0.004 c 4.6e-4,-0.005 10e-4,-0.0104 0.002,-0.0156 0.39957,-3.96994 0.99741,-8.17003 2.35938,-11.79688 1.36415,-3.6327 3.42318,-6.64308 6.84179,-8.5957 l 0.043,-0.0254 0.043,-0.0273 c 2.22738,-1.43737 4.85423,-2.25873 7.57422,-2.5 z m -30.61914,0.63476 0,11.22266 -20.64649,0.42773 c -2.17864,-3.6e-4 -3.8863,1.34185 -4.70117,2.79883 -0.81487,1.45698 -1.02609,2.99254 -0.98047,4.25976 l -0.002,-0.11328 c 0,0 -0.19897,7.9162 -0.16797,16.43946 0.0155,4.26163 0.0891,8.67547 0.27539,12.35547 0.18628,3.67999 0.33581,6.38283 1.0586,8.2539 2.9116,7.53724 7.12498,11.86909 12.39453,13.77149 4.88941,1.76516 10.50408,1.44491 16.73828,0.59961 l 4.41406,9.38476 c -6.03511,2.02527 -13.24607,2.62224 -19.44141,1.95117 -9.8597,-2.10232 -20.08363,-10.62271 -23.74218,-18 -3.41954,-10.03092 -2.39369,-21.18282 -2.71875,-32.28125 l -0.002,0.13867 c 0.33639,-7.47665 -0.67297,-14.81795 1.3086,-21.29687 3.57203,-6.52296 11.41486,-10.21139 18.87305,-9.85352 l 0.0625,0.004 0.0605,-0.002 c 5.71264,-0.10803 11.45775,-0.056 17.2168,-0.0606 z m 72.70703,0.57227 0.60742,69.25195 14.83203,0 0,11.18945 -26.07226,0 0,-40.56836 0,-0.006 -0.23047,-39.83593 10.86328,-0.0312 z m -39.92187,10.57617 c -3.19173,0.29449 -6.47405,2.39223 -7.50782,6.03515 -0.22046,0.77689 -0.25232,1.4451 -0.3789,2.71485 -0.12659,1.26975 -0.267,2.92566 -0.41602,4.8418 -0.29804,3.83226 -0.62936,8.69937 -0.93945,13.49023 -0.62018,9.58173 -1.1543,18.85742 -1.1543,18.85742 l 0.008,-0.0918 c -0.31566,2.943 -0.48916,5.81726 0.19336,8.39844 0.68252,2.58119 2.56408,4.9047 5.57813,5.6875 3.9067,1.01464 8.57029,0.64883 12.59961,-0.26953 1.65067,-0.37622 2.97781,-1.45061 3.70312,-2.74805 0.72531,-1.29743 0.96866,-2.73865 1.04297,-4.20312 0.14862,-2.92894 -0.41446,-6.10083 -0.66601,-8.57813 l -0.004,-0.0332 -0.006,-0.0312 c -0.7109,-5.14405 -2.9513,-27.05093 -4.70313,-38.66797 -0.28665,-1.90093 -1.33464,-3.4605 -2.72265,-4.35937 -1.38801,-0.89888 -3.03109,-1.19022 -4.62695,-1.04297 z m 0.33984,3.67773 c 0.90975,-0.0839 1.72715,0.10601 2.28125,0.46485 0.5541,0.35883 0.93079,0.83349 1.07812,1.81054 1.7161,11.38012 3.92644,33.02166 4.68946,38.56055 0.27205,2.67645 0.76805,5.73139 0.65234,8.01172 -0.0579,1.14099 -0.27719,2.05153 -0.57812,2.58984 -0.30094,0.53831 -0.56647,0.78186 -1.30079,0.94922 -3.59988,0.82048 -7.90028,1.06338 -10.85156,0.29688 -1.85413,-0.48155 -2.48096,-1.33944 -2.93554,-3.0586 -0.45459,-1.71916 -0.39371,-4.264 -0.0938,-7.06054 l 0.006,-0.0449 0.002,-0.0469 c 0,0 0.53326,-9.26532 1.15234,-18.83008 0.30954,-4.78238 0.63984,-9.63907 0.93555,-13.44141 0.14785,-1.90117 0.2883,-3.53948 0.41015,-4.76171 0.12186,-1.22224 0.30625,-2.24488 0.25782,-2.07422 0.5638,-1.9868 2.47542,-3.19736 4.29492,-3.36524 z m 69.59961,3.48047 0.11133,0.0117 0.10937,-0.002 c 9.73912,-0.23384 19.3965,6.1778 22.16211,15.58007 l 0.0215,0.0742 0.0274,0.0723 c 4.29983,11.08156 -1.86912,24.6 -12.54297,29.50586 l -0.0215,0.01 -0.0215,0.01 c -5.00894,2.45734 -10.95686,3.01382 -16.26562,1.36719 l -0.004,-0.002 -0.004,0 c -9.44221,-2.88379 -17.37593,-11.93103 -16.90039,-21.95898 l 0.006,-0.0977 -0.006,-0.0996 c -0.46794,-7.79898 2.57252,-16.03303 9.30469,-20.02148 l 0.11523,-0.0684 0.10352,-0.082 c 3.92186,-3.16551 8.81788,-4.78016 13.80469,-4.29883 z m -0.043,9.01953 c -4.07674,-0.10721 -8.15568,1.50597 -10.85742,4.92383 -7.089,7.50188 -3.13858,21.14441 7.0664,23.42383 4.96002,1.10788 9.96392,-0.36986 13.6836,-4.00391 5.33816,-5.21525 5.26019,-13.32282 0.98047,-18.91406 -2.66026,-3.47548 -6.76177,-5.32156 -10.87305,-5.42969 z m -0.0469,3.7461 c 3.03281,0.0903 6.06788,1.42137 7.98633,3.92773 3.27049,4.27272 3.34363,10.15013 -0.62695,14.0293 -2.92496,2.85763 -6.49473,3.89266 -10.29883,3.04297 -7.28622,-1.62748 -10.24581,-12.02318 -5.15625,-17.33789 l 0.0664,-0.0684 0.0586,-0.0762 c 1.90885,-2.458 4.9379,-3.6079 7.9707,-3.51757 z m 25.9629,1.63476 0.0508,0.14649 c -0.009,-0.0307 -0.026,-0.0572 -0.0352,-0.0879 -0.007,-0.0192 -0.008,-0.0394 -0.0156,-0.0586 z m -31.02735,0.16406 -1.29101,0.78321 c 0,0 -3.78471,2.39574 -3.38477,6.875 l 0.0723,0.79883 0.63281,0.49218 4.71875,3.67969 -0.20313,-4.0293 c -0.11028,-2.19416 0.88906,-3.06572 1.50977,-3.63476 l 1.36523,-1.25 -3.41992,-3.71485 z m -21.86133,9.92969 c -0.002,0.0405 0.008,0.0787 0.006,0.11914 10e-4,0.0258 -0.005,0.0523 -0.004,0.0781 l -0.002,-0.19727 z m 1.13086,8.05469 c 2.11007,6.53412 7.01855,11.96503 13.05469,15.27734 l -12.92187,0 -0.13282,-15.27734 z"
         id="path4260"
         inkscape:connector-curvature="0" />
      <path
         sodipodi:nodetypes="ccccccccscsscssccccccccscccccccccccccccccccccccccccccccccccscccccsccsscccccccccccccccccccccccccccccccczsccccczccc"
         inkscape:connector-curvature="0"
         id="path4202"
         d="m 218.4438,219.70332 c -8.00951,-2.5268 -16.09094,-9.12199 -15.89398,-18.21647 -0.13747,-14.79944 1.50632,-29.5581 2.81873,-44.2842 0.80902,-8.04941 2.4033,-17.42212 10.1237,-21.83181 10.03029,-6.4727 26.40704,-1.64203 29.08004,10.60461 1.80252,17.94877 5.11757,40.9011 6.53878,52.44323 1.0301,6.69698 -2.24643,13.40343 -7.89162,17.0633 -7.05827,4.96105 -16.47315,6.8081 -24.77565,4.22134 z m 15.36357,-15.6331 c 4.76998,-1.08716 3.17556,-8.38785 2.65208,-13.54299 -0.73527,-5.32039 -2.96595,-27.13665 -4.70126,-38.64417 -0.86799,-5.75598 -9.65766,-4.7681 -11.25523,0.86162 -0.68813,2.4249 -2.82259,39.50543 -2.82259,39.50543 -0.61562,5.73954 -0.46769,10.83828 4.40049,12.10263 3.42899,0.89057 7.91191,0.5869 11.72651,-0.28252 z m -76.87509,-4.93342 c -3.642,-10.56021 -2.52669,-21.9731 -2.84834,-32.95489 0.32861,-7.30392 -0.79692,-14.90746 1.43311,-21.96622 3.93324,-7.34592 12.51175,-11.3355 20.68144,-10.94348 6.36454,-0.12036 12.73087,-0.0465 19.09627,-0.0671 l 0,14.88184 -22.4932,0.46547 c -3.05458,-5e-4 -3.90512,3.23274 -3.83621,5.14664 0,0 -0.79452,31.58466 1.04159,36.33777 5.57672,14.43639 15.04264,15.06864 28.53477,13.08667 l 5.85701,12.45422 c -6.76488,2.74476 -15.1773,3.44592 -22.30013,2.66031 -10.63411,-2.22784 -21.19577,-10.99451 -25.16631,-19.10123 z m 96.74509,-23.6303 -0.24154,-41.68599 14.551,-0.043 0.60595,69.2578 14.84827,0 0,14.88184 -29.76368,0 z m 70.58003,41.99281 -0.74985,-55.8283 c -4.97436,-10.11468 -10.61745,-20.62566 -15.36493,-30.84839 l 17.23183,0.093 c 7.22976,14.98066 16.34868,36.38697 23.57055,51.36938 l -0.20439,-49.07986 15.97819,0 0,84.71202 -13.7141,0 -10.89817,-21.178 -0.65829,21.178 c 0,0 -10.52983,-0.46607 -15.19084,-0.41783 z m 65.64606,-54.00053 -21.97459,-30.75557 16.70277,-0.14703 10.62192,15.12619 10.55893,-15.42047 17.43558,-0.10762 -20.4765,29.68485 0.12789,53.7412 -13.72064,0.66896 z m -100.6968,38.25611 c -10.18844,-3.1117 -18.72757,-12.78173 -18.20457,-23.81034 -0.50115,-8.3524 2.7386,-17.29483 10.20769,-21.71986 4.26925,-3.4459 9.64629,-5.22831 15.14139,-4.69792 10.56787,-0.25373 20.95025,6.61972 23.97567,16.90527 4.69048,12.08833 -1.91157,26.52701 -13.49438,31.85064 -5.42567,2.66178 -11.83648,3.2679 -17.6258,1.47221 z m 15.52687,-16.34885 c 4.65437,-4.54721 4.57868,-11.53955 0.80357,-16.47153 -4.57871,-5.98184 -14.27267,-6.35576 -18.88238,-0.4199 -6.13027,6.40147 -2.67172,18.45832 6.08817,20.41496 4.38206,0.97879 8.66832,-0.27769 11.99064,-3.52353 z m -16.55071,-9.98459 c -0.23407,-2.27516 1.59969,-3.21907 1.59969,-3.21907 l 0.67377,0.33926 c -0.61174,1.16563 -1.42194,1.23475 -1.02445,3.53706 z M 171.7729,95.146936 c 3.4883,-0.13442 6.01997,-0.18007 7.06887,4.113545 l -0.0934,16.737979 c -0.0383,3.10582 -2.45363,0.3555 -2.57006,3.40667 l 11.36683,0 c -0.14536,-3.34302 -3.44009,-0.54408 -3.10394,-3.26132 l -0.1312,-8.70892 c 0.69305,-5.70445 9.00819,-4.41588 7.95239,1.12037 l -0.0839,7.7339 c -0.0939,2.82238 -3.5051,-0.37244 -3.65044,3.11597 l 12.40367,0 c -0.1579,-3.34302 -3.14276,0.0178 -3.15019,-3.11597 l -0.0288,-12.37601 c -0.43196,-5.122871 -6.9112,-6.682676 -11.89947,-3.2969 -1.15907,0.54957 -1.35189,1.56375 -1.35189,1.56375 l -0.0903,-12.732504 c -5.48647,0.686695 -9.69921,1.98468 -15.09778,2.181895 -4.31335,0.22123 -8.62689,0.43878 -12.94031,0.658565 l 0.0786,7.08873 c 1.83931,-3.55557 4.4112,-4.388415 9.08034,-4.11731 l -0.10555,21.029784 c -0.0596,2.84476 -3.03261,0.0637 -3.32331,3.11597 l 13.45824,0 c -0.14535,-3.05233 -3.73442,-0.035 -3.84107,-3.40667 0,0 0.0803,-18.362871 0.0527,-20.851524 z m 30.18604,21.270674 c -3.37569,-3.72868 -3.38388,-7.41631 -1.44302,-11.53828 2.63436,-5.594803 8.0872,-6.579457 13.70003,-4.22044 5.62114,2.61311 4.90662,9.76045 4.90662,9.76045 l -15.42813,-0.0927 c 0.99201,5.23085 6.7424,5.84108 13.9708,3.87444 l -1.9821,3.88658 c -4.19194,1.79841 -10.34851,2.05863 -13.7242,-1.67005 z m 13.20764,-9.22776 c -1.13125,-5.23103 -10.09454,-5.39396 -11.28686,-0.0891 z"
         style="fill:#75b1e7;fill-opacity:1;stroke:#000000;stroke-width:0.1925;stroke-miterlimit:4;stroke-dasharray:none;stroke-opacity:1" />
      <path
         sodipodi:nodetypes="ccccccccscsscssccccccccscccccccccccccccccccccccccccccccccccscccccsccsscccccccccccccccccccccccccccccccczsccccczccc"
         inkscape:connector-curvature="0"
         id="path4202-6"
         d="m 218.4438,219.70332 c -8.00951,-2.5268 -16.09094,-9.12199 -15.89398,-18.21647 -0.13747,-14.79944 1.50632,-29.5581 2.81873,-44.2842 0.80902,-8.04941 2.4033,-17.42212 10.1237,-21.83181 10.03029,-6.4727 26.40704,-1.64203 29.08004,10.60461 1.80252,17.94877 5.11757,40.9011 6.53878,52.44323 1.0301,6.69698 -2.24643,13.40343 -7.89162,17.0633 -7.05827,4.96105 -16.47315,6.8081 -24.77565,4.22134 z m 15.36357,-15.6331 c 4.76998,-1.08716 3.17556,-8.38785 2.65208,-13.54299 -0.73527,-5.32039 -2.96595,-27.13665 -4.70126,-38.64417 -0.86799,-5.75598 -9.65766,-4.7681 -11.25523,0.86162 -0.68813,2.4249 -2.82259,39.50543 -2.82259,39.50543 -0.61562,5.73954 -0.46769,10.83828 4.40049,12.10263 3.42899,0.89057 7.91191,0.5869 11.72651,-0.28252 z m -76.87509,-4.93342 c -3.642,-10.56021 -2.52669,-21.9731 -2.84834,-32.95489 0.32861,-7.30392 -0.79692,-14.90746 1.43311,-21.96622 3.93324,-7.34592 12.51175,-11.3355 20.68144,-10.94348 6.36454,-0.12036 12.73087,-0.0465 19.09627,-0.0671 l 0,14.88184 -22.4932,0.46547 c -3.05458,-5e-4 -3.90512,3.23274 -3.83621,5.14664 0,0 -0.79452,31.58466 1.04159,36.33777 5.57672,14.43639 15.04264,15.06864 28.53477,13.08667 l 5.85701,12.45422 c -6.76488,2.74476 -15.1773,3.44592 -22.30013,2.66031 -10.63411,-2.22784 -21.19577,-10.99451 -25.16631,-19.10123 z m 96.74509,-23.6303 -0.24154,-41.68599 14.551,-0.043 0.60595,69.2578 14.84827,0 0,14.88184 -29.76368,0 z m 70.58003,41.99281 -0.74985,-55.8283 c -4.97436,-10.11468 -10.61745,-20.62566 -15.36493,-30.84839 l 17.23183,0.093 c 7.22976,14.98066 16.34868,36.38697 23.57055,51.36938 l -0.20439,-49.07986 15.97819,0 0,84.71202 -13.7141,0 -10.89817,-21.178 -0.65829,21.178 c 0,0 -10.52983,-0.46607 -15.19084,-0.41783 z m 65.64606,-54.00053 -21.97459,-30.75557 16.70277,-0.14703 10.62192,15.12619 10.55893,-15.42047 17.43558,-0.10762 -20.4765,29.68485 0.12789,53.7412 -13.72064,0.66896 z m -100.6968,38.25611 c -10.18844,-3.1117 -18.72757,-12.78173 -18.20457,-23.81034 -0.50115,-8.3524 2.7386,-17.29483 10.20769,-21.71986 4.26925,-3.4459 9.64629,-5.22831 15.14139,-4.69792 10.56787,-0.25373 20.95025,6.61972 23.97567,16.90527 4.69048,12.08833 -1.91157,26.52701 -13.49438,31.85064 -5.42567,2.66178 -11.83648,3.2679 -17.6258,1.47221 z m 15.52687,-16.34885 c 4.65437,-4.54721 4.57868,-11.53955 0.80357,-16.47153 -4.57871,-5.98184 -14.27267,-6.35576 -18.88238,-0.4199 -6.13027,6.40147 -2.67172,18.45832 6.08817,20.41496 4.38206,0.97879 8.66832,-0.27769 11.99064,-3.52353 z m -16.55071,-9.98459 c -0.30623,-3.42973 2.50177,-5.13174 2.50177,-5.13174 l 1.14312,1.24169 c -0.72006,0.66012 -2.25175,2.20944 -2.10702,5.08892 z M 171.7729,95.146933 c 3.4883,-0.13442 6.01997,-0.18007 7.06887,4.113545 l -0.0934,16.737982 c -0.0383,3.10582 -2.45363,0.3555 -2.57006,3.40667 l 11.36683,0 c -0.14536,-3.34302 -3.44009,-0.54408 -3.10394,-3.26132 l -0.1312,-8.70892 c 0.69305,-5.70445 9.00819,-4.41588 7.95239,1.12037 l -0.0839,7.7339 c -0.0939,2.82238 -3.5051,-0.37244 -3.65044,3.11597 l 12.40367,0 c -0.1579,-3.34302 -3.14276,0.0178 -3.15019,-3.11597 l -0.0288,-12.37601 c -0.43196,-5.122874 -6.9112,-6.682679 -11.89947,-3.2969 -1.15907,0.54957 -1.35189,1.56375 -1.35189,1.56375 l -0.0903,-12.732507 c -5.48647,0.686695 -9.69921,1.98468 -15.09778,2.181895 -4.31335,0.22123 -8.62689,0.43878 -12.94031,0.658565 l 0.0786,7.08873 c 1.83931,-3.55557 4.4112,-4.388415 9.08034,-4.11731 l -0.10555,21.029787 c -0.0596,2.84476 -3.03261,0.0637 -3.32331,3.11597 l 13.45824,0 c -0.14535,-3.05233 -3.73442,-0.035 -3.84107,-3.40667 0,0 0.0803,-18.362874 0.0527,-20.851527 z m 30.18604,21.270677 c -3.37569,-3.72868 -3.38388,-7.41631 -1.44302,-11.53828 2.63436,-5.594806 8.0872,-6.57946 13.70003,-4.22044 5.62114,2.61311 4.90662,9.76045 4.90662,9.76045 l -15.42813,-0.0927 c 0.99201,5.23085 6.7424,5.84108 13.9708,3.87444 l -1.9821,3.88658 c -4.19194,1.79841 -10.34851,2.05863 -13.7242,-1.67005 z m 13.20764,-9.22776 c -1.13125,-5.23103 -10.09454,-5.39396 -11.28686,-0.0891 z"
         style="display:inline;fill:#75b1e7;fill-opacity:1;stroke:#000000;stroke-width:0.1925;stroke-miterlimit:4;stroke-dasharray:none;stroke-opacity:1" />
      <path
         style="display:inline;fill:#000000;fill-opacity:1;stroke:#000000;stroke-width:0.1925;stroke-miterlimit:4;stroke-dasharray:none;stroke-opacity:1"
         d="m 304.73353,185.40604 c 4.65437,-4.54721 4.57868,-11.53955 0.80357,-16.47153 -4.57871,-5.98184 -14.27267,-6.35576 -18.88238,-0.4199 -6.13027,6.40147 -2.67172,18.45832 6.08817,20.41496 4.38206,0.97879 8.66832,-0.27769 11.99064,-3.52353 z"
         id="path4244"
         inkscape:connector-curvature="0" />
      <path
         style="display:inline;fill:#ffffff;fill-opacity:1;stroke:#000000;stroke-width:0.1925;stroke-miterlimit:4;stroke-dasharray:none;stroke-opacity:1"
         d="m 288.18282,175.42145 c -0.30623,-3.42973 2.50177,-5.13174 2.50177,-5.13174 l 1.14312,1.24169 c -0.72006,0.66012 -2.25175,2.20944 -2.10702,5.08892 z"
         id="path4242"
         inkscape:connector-curvature="0" />
    </g>
  </g>
</svg>
